<svg xmlns="http://www.w3.org/2000/svg"
 xmlns:xlink="http://www.w3.org/1999/xlink"
 width="16px" height="26px"  viewBox="0 0 16 26">
<path fill-rule="evenodd"  fill="#ffffff"
 d="M2.4317627,14.084351 C2.4317627,14.084351 11.488831,23.544067 11.488831,23.544067 C12.065063,24.14563 12.999023,24.14563 13.57489,23.544067 C14.150757,22.942505 14.150757,21.966797 13.57489,21.365479 C13.57489,21.365479 5.5608215,12.995605 5.5608215,12.995605 C5.5608215,12.995605 13.574646,4.6259766 13.574646,4.6259766 C14.150421,4.02417 14.150421,3.048706 13.574646,2.4471436 C12.998688,1.845581 12.064819,1.845581 11.488617,2.4471436 C11.488617,2.4471436 2.431549,11.906494 2.431549,11.906494 C2.1436768,12.20752 1.9998474,12.601318 1.9998474,12.995605 C1.9998474,13.389893 2.144226,13.784058 2.4317627,14.084351 Z"/>
</svg>