<svg xmlns="http://www.w3.org/2000/svg"
 xmlns:xlink="http://www.w3.org/1999/xlink"
 width="16px" height="26px"  viewBox="0 0 16 26">
<path fill-rule="evenodd"  fill="#ffffff"
 d="M13.568115,14.084351 C13.568115,14.084351 4.5109863,23.544067 4.5109863,23.544067 C3.9349365,24.14563 3.0009766,24.14563 2.4250488,23.544067 C1.8491211,22.942505 1.8491211,21.966797 2.4250488,21.365479 C2.4250488,21.365479 10.438965,12.995605 10.438965,12.995605 C10.438965,12.995605 2.425293,4.6259766 2.425293,4.6259766 C1.8494873,4.02417 1.8494873,3.048706 2.425293,2.4471436 C3.0012207,1.845581 3.9351807,1.845581 4.5113525,2.4471436 C4.5113525,2.4471436 13.568359,11.906494 13.568359,11.906494 C13.856323,12.20752 14.0,12.601318 14.0,12.995605 C14.0,13.389893 13.855713,13.784058 13.568115,14.084351 Z"/>
</svg>