<svg xmlns="http://www.w3.org/2000/svg"
 xmlns:xlink="http://www.w3.org/1999/xlink"
 width="37px" height="46px"  viewBox="0 0 37 46">
<path fill-rule="evenodd"  fill="#4ba9d4"
 d="M18.39392,2.0089664 C9.927368,2.3018856 2.8936768,8.812304 2.0811768,17.122368 C1.9151611,18.78458 2.0111084,20.394962 2.3083496,21.936466 C2.3083496,21.936466 2.3083496,21.936466 2.3083496,21.936466 C2.3083496,21.936466 2.3344727,22.117367 2.421875,22.46178 C2.68396,23.61573 3.0771484,24.73524 3.5664062,25.78587 C5.2702637,29.764347 9.210815,36.421227 18.053223,43.663605 C18.594849,44.111343 19.390015,44.111343 19.94043,43.663605 C28.782715,36.42992 32.723267,29.77304 34.435913,25.777176 C34.93396,24.726547 35.31848,23.61573 35.580444,22.453087 C35.65918,22.117367 35.69409,21.927773 35.69409,21.927773 C35.69409,21.927773 35.69409,21.927773 35.69409,21.927773 C35.89514,20.894531 36.0,19.835209 36.0,18.750137 C35.999878,9.294483 28.057617,1.6732464 18.39392,2.0089664 ZM18.996826,27.086285 C14.435913,27.086285 10.739868,23.443523 10.739868,18.948093 C10.739868,14.452995 14.435913,10.810238 18.996826,10.810238 C23.55774,10.810238 27.253784,14.452995 27.253784,18.948093 C27.253784,23.443523 23.55774,27.086285 18.996826,27.086285 Z"/>
</svg>