<svg xmlns="http://www.w3.org/2000/svg"
 xmlns:xlink="http://www.w3.org/1999/xlink"
 width="29px" height="29px"  viewBox="0 0 29 29">
<path fill-rule="evenodd"  fill="#efeff4"
 d="M25.77533,15.325897 C25.670654,15.111893 25.670654,14.866119 25.77533,14.651779 C25.77533,14.651779 26.745422,12.66655 26.745422,12.66655 C27.285461,11.561081 26.857544,10.243622 25.771118,9.666809 C25.771118,9.666809 23.819946,8.631226 23.819946,8.631226 C23.609436,8.5195465 23.465027,8.320587 23.42395,8.085846 C23.42395,8.085846 23.042297,5.909027 23.042297,5.909027 C22.829834,4.69722 21.709229,3.8829956 20.4917,4.0552063 C20.4917,4.0552063 18.304626,4.364853 18.304626,4.364853 C18.068481,4.397949 17.835083,4.322052 17.66388,4.1565247 C17.66388,4.1565247 16.076355,2.620041 16.076355,2.620041 C15.192322,1.7643585 13.807495,1.7643585 12.923584,2.620041 C12.923584,2.620041 11.335999,4.1565247 11.335999,4.1565247 C11.164734,4.3223877 10.931335,4.397949 10.69519,4.364853 C10.69519,4.364853 8.508179,4.0552063 8.508179,4.0552063 C7.290283,3.8829956 6.170105,4.69722 5.9575806,5.909363 C5.9575806,5.909363 5.57605,8.085846 5.57605,8.085846 C5.53479,8.320587 5.390381,8.5195465 5.1799927,8.631226 C5.1799927,8.631226 3.2286987,9.666809 3.2286987,9.666809 C2.142334,10.243622 1.7144775,11.561417 2.2545776,12.66655 C2.2545776,12.66655 3.2245483,14.652115 3.2245483,14.652115 C3.3291626,14.866119 3.3291626,15.111893 3.2245483,15.326233 C3.2245483,15.326233 2.2544556,17.311447 2.2544556,17.311447 C1.7143555,18.416916 2.142334,19.73439 3.2286987,20.311188 C3.2286987,20.311188 5.1799927,21.346771 5.1799927,21.346771 C5.390381,21.458466 5.53479,21.65741 5.57605,21.89215 C5.57605,21.89215 5.9575806,24.068985 5.9575806,24.068985 C6.151001,25.172104 7.0966187,25.945862 8.18335,25.945862 C8.290466,25.945862 8.399109,25.938171 8.50824,25.92279 C8.50824,25.92279 10.6953125,25.61316 10.6953125,25.61316 C10.931213,25.579712 11.164734,25.65596 11.33606,25.821472 C11.33606,25.821472 12.923584,27.357956 12.923584,27.357956 C13.365601,27.785965 13.932678,27.999634 14.499939,27.999634 C15.067078,27.999634 15.63446,27.78563 16.076233,27.357956 C16.076233,27.357956 17.66388,25.821472 17.66388,25.821472 C17.835205,25.65596 18.068604,25.580048 18.304626,25.61316 C18.304626,25.61316 20.4917,25.92279 20.4917,25.92279 C21.709778,26.095001 22.829834,25.280777 23.042297,24.06865 C23.042297,24.06865 23.42395,21.89215 23.42395,21.89215 C23.465149,21.65741 23.609436,21.458786 23.819946,21.346771 C23.819946,21.346771 25.771118,20.311188 25.771118,20.311188 C26.857544,19.73439 27.285461,18.416916 26.745422,17.311447 C26.745422,17.311447 25.77533,15.325897 25.77533,15.325897 ZM11.499634,8.235321 C13.016113,8.235321 14.249878,9.469864 14.249878,10.986954 C14.249878,12.504044 13.016113,13.738251 11.499634,13.738251 C9.983093,13.738251 8.74939,12.504044 8.74939,10.986954 C8.74939,9.469864 9.983093,8.235321 11.499634,8.235321 ZM10.080017,20.47203 C9.933594,20.618484 9.741638,20.691727 9.549683,20.691727 C9.357727,20.691727 9.1657715,20.618484 9.019348,20.47203 C8.726501,20.178772 8.726501,19.703629 9.019348,19.410706 C9.019348,19.410706 18.9198,9.505966 18.9198,9.505966 C19.212646,9.213058 19.687622,9.213058 19.980469,9.505966 C20.273438,9.798889 20.273438,10.274048 19.980469,10.5673065 C19.980469,10.5673065 10.080017,20.47203 10.080017,20.47203 ZM17.500122,21.742676 C15.983704,21.742676 14.749878,20.508148 14.749878,18.991058 C14.749878,17.473969 15.983704,16.239761 17.500122,16.239761 C19.016602,16.239761 20.250366,17.473969 20.250366,18.991058 C20.250366,20.508148 19.016602,21.742676 17.500122,21.742676 ZM17.500122,17.740463 C16.810852,17.740463 16.249939,18.30156 16.249939,18.991058 C16.249939,19.680542 16.810791,20.241638 17.500122,20.241638 C18.189453,20.241638 18.750244,19.680542 18.750244,18.991058 C18.750244,18.30156 18.189453,17.740463 17.500122,17.740463 ZM11.499634,9.736023 C10.810303,9.736023 10.249573,10.297119 10.249573,10.986954 C10.249573,11.676453 10.810303,12.237534 11.499634,12.237534 C12.188965,12.237534 12.749756,11.676453 12.749756,10.986954 C12.749756,10.297119 12.188965,9.736023 11.499634,9.736023 Z"/>
</svg>